<svg width="762" height="241" viewBox="0 0 762 241" fill="none" xmlns="http://www.w3.org/2000/svg">
<line x1="224" y1="40.5" x2="315" y2="40.5" stroke="#64748B"/>
<line x1="224" y1="0.5" x2="315" y2="0.5" stroke="#64748B"/>
<line x1="224" y1="80" x2="315" y2="80" stroke="#14B8A6" stroke-width="2"/>
<line x1="335" y1="40.5" x2="427" y2="40.5" stroke="#64748B"/>
<line x1="224" y1="120" x2="315" y2="120" stroke="#14B8A6" stroke-width="2"/>
<line x1="335" y1="0.5" x2="427" y2="0.5" stroke="#64748B"/>
<line x1="447" y1="40.5" x2="538" y2="40.5" stroke="#64748B"/>
<line x1="559" y1="40.5" x2="650" y2="40.5" stroke="#64748B"/>
<line x1="671" y1="40.5" x2="762" y2="40.5" stroke="#64748B"/>
<line x1="335" y1="80" x2="427" y2="80" stroke="#14B8A6" stroke-width="2"/>
<line x1="335" y1="120" x2="427" y2="120" stroke="#14B8A6" stroke-width="2"/>
<line x1="447" y1="0.5" x2="538" y2="0.5" stroke="#64748B"/>
<line x1="559" y1="0.5" x2="650" y2="0.5" stroke="#64748B"/>
<line x1="671" y1="0.5" x2="762" y2="0.5" stroke="#64748B"/>
<line x1="447" y1="80" x2="538" y2="80" stroke="#14B8A6" stroke-width="2"/>
<line x1="112" y1="40.5" x2="203" y2="40.5" stroke="#64748B"/>
<line x1="559" y1="80.5" x2="650" y2="80.5" stroke="#64748B"/>
<line x1="671" y1="80.5" x2="762" y2="80.5" stroke="#64748B"/>
<line y1="40.5" x2="91" y2="40.5" stroke="#64748B"/>
<line x1="447" y1="120" x2="538" y2="120" stroke="#14B8A6" stroke-width="2"/>
<line x1="559" y1="120.5" x2="650" y2="120.5" stroke="#64748B"/>
<line x1="671" y1="120.5" x2="762" y2="120.5" stroke="#64748B"/>
<line x1="112" y1="0.5" x2="203" y2="0.5" stroke="#64748B"/>
<line x1="112" y1="80.5" x2="203" y2="80.5" stroke="#64748B"/>
<line x1="112" y1="120.5" x2="203" y2="120.5" stroke="#64748B"/>
<line y1="0.5" x2="91" y2="0.5" stroke="#64748B"/>
<line y1="80.5" x2="91" y2="80.5" stroke="#64748B"/>
<line y1="120.5" x2="91" y2="120.5" stroke="#64748B"/>
<line x1="224" y1="160" x2="315" y2="160" stroke="#14B8A6" stroke-width="2"/>
<line x1="224" y1="200.5" x2="315" y2="200.5" stroke="#64748B"/>
<line x1="224" y1="240.5" x2="315" y2="240.5" stroke="#64748B"/>
<line x1="335" y1="160" x2="427" y2="160" stroke="#14B8A6" stroke-width="2"/>
<line x1="335" y1="200.5" x2="427" y2="200.5" stroke="#64748B"/>
<line x1="335" y1="240.5" x2="427" y2="240.5" stroke="#64748B"/>
<line x1="447" y1="160" x2="538" y2="160" stroke="#14B8A6" stroke-width="2"/>
<line x1="559" y1="160.5" x2="650" y2="160.5" stroke="#64748B"/>
<line x1="671" y1="160.5" x2="762" y2="160.5" stroke="#64748B"/>
<line x1="447" y1="200.5" x2="538" y2="200.5" stroke="#64748B"/>
<line x1="559" y1="200.5" x2="650" y2="200.5" stroke="#64748B"/>
<line x1="671" y1="200.5" x2="762" y2="200.5" stroke="#64748B"/>
<line x1="112" y1="160.5" x2="203" y2="160.5" stroke="#64748B"/>
<line x1="112" y1="200.5" x2="203" y2="200.5" stroke="#64748B"/>
<line x1="112" y1="240.5" x2="203" y2="240.5" stroke="#64748B"/>
<line x1="447" y1="240.5" x2="538" y2="240.5" stroke="#64748B"/>
<line x1="559" y1="240.5" x2="650" y2="240.5" stroke="#64748B"/>
<line x1="671" y1="240.5" x2="762" y2="240.5" stroke="#64748B"/>
<line y1="160.5" x2="91" y2="160.5" stroke="#64748B"/>
<line y1="200.5" x2="91" y2="200.5" stroke="#64748B"/>
<line y1="240.5" x2="91" y2="240.5" stroke="#64748B"/>
</svg>
