<?xml version="1.0" encoding="utf-8"?>
<!-- Generator: Adobe Illustrator 27.0.0, SVG Export Plug-In . SVG Version: 6.00 Build 0)  -->
<svg version="1.1" id="レイヤー_1" xmlns="http://www.w3.org/2000/svg" xmlns:xlink="http://www.w3.org/1999/xlink" x="0px"
	 y="0px" viewBox="0 0 178.8 27" style="enable-background:new 0 0 178.8 27;" xml:space="preserve">
<style type="text/css">
	.st0{fill:#1E293B;}
	.st1{fill:#14B8A6;}
	.st2{fill:#94A3B8;}
	.st3{fill:#2DD4BF;}
	.st4{fill:#475569;}
	.st5{fill:#CBD5E1;}
</style>
<path class="st0" d="M65.6,9.4c0.9,1.1,1.4,2.7,1.4,4.7v12.1c0,0.1,0,0.2-0.1,0.3c-0.1,0.1-0.2,0.1-0.3,0.1h-4.2
	c-0.1,0-0.2,0-0.3-0.1S62,26.3,62,26.2V14.8c0-0.8-0.2-1.5-0.6-2c-0.4-0.5-0.9-0.7-1.6-0.7c-0.7,0-1.3,0.2-1.7,0.7s-0.6,1.2-0.6,2
	v11.4c0,0.1,0,0.2-0.1,0.3c-0.1,0.1-0.2,0.1-0.3,0.1h-4.2c-0.1,0-0.2,0-0.3-0.1c-0.1-0.1-0.1-0.2-0.1-0.3V14.8c0-0.8-0.2-1.5-0.6-2
	c-0.4-0.5-1-0.7-1.6-0.7c-0.7,0-1.3,0.2-1.7,0.7c-0.4,0.5-0.6,1.2-0.6,2v11.4c0,0.1,0,0.2-0.1,0.3c-0.1,0.1-0.2,0.1-0.3,0.1h-4.2
	c-0.1,0-0.2,0-0.3-0.1c-0.4-0.1-0.4-0.2-0.4-0.3V8.4c0-0.1,0-0.2,0.1-0.3C42.9,8,43,8,43.1,8h4.2c0.1,0,0.2,0,0.3,0.1
	c0.1,0.1,0.1,0.2,0.1,0.3v0.9c0,0.1,0,0.1,0.1,0.1c0,0,0.1,0,0.1-0.1c0.5-0.6,1.1-1,1.8-1.3c0.7-0.3,1.4-0.4,2.2-0.4
	c1.1,0,2,0.2,2.8,0.7c0.8,0.4,1.4,1.1,1.8,1.9l0.1,0.1l0.1-0.1c0.5-0.9,1.2-1.5,2-1.9c1-0.4,1.9-0.6,2.8-0.6
	C63.3,7.7,64.6,8.2,65.6,9.4z"/>
<path class="st0" d="M71.1,5c-0.5-0.5-0.8-1.2-0.8-2.1c0-0.8,0.3-1.5,0.8-2.1C71.6,0.3,72.3,0,73.2,0c0.8,0,1.5,0.3,2.1,0.8
	s0.8,1.2,0.8,2.1c0,0.8-0.3,1.5-0.8,2.1c-0.7,0.6-1.4,0.9-2.2,0.9S71.6,5.6,71.1,5z M70.7,26.5c-0.1-0.1-0.1-0.2-0.1-0.3V8.4
	c0-0.1,0-0.2,0.1-0.3C70.8,8,70.9,8,71,8h4.2c0.1,0,0.2,0,0.3,0.1c0.1,0.1,0.2,0.2,0.2,0.3v17.8c0,0.1,0,0.2-0.1,0.3
	c-0.1,0.1-0.2,0.1-0.3,0.1h-4.2C70.9,26.6,70.8,26.6,70.7,26.5z"/>
<path class="st0" d="M92.8,9.4c1,1.1,1.5,2.7,1.5,4.7v12.1c0,0.1,0,0.2-0.1,0.3c-0.1,0.1-0.2,0.1-0.3,0.1h-4.2c-0.1,0-0.2,0-0.3-0.1
	c-0.1-0.1-0.1-0.2-0.1-0.3V14.8c0-0.8-0.2-1.5-0.6-2s-1-0.7-1.7-0.7s-1.3,0.2-1.7,0.7s-0.6,1.2-0.6,2v11.4c0,0.1,0,0.2-0.1,0.3
	c-0.1,0.1-0.2,0.1-0.3,0.1h-4.2c-0.1,0-0.2,0-0.3-0.1s-0.1-0.2-0.1-0.3V8.4c0-0.1,0-0.2,0.1-0.3C79.9,8,80,8,80.1,8h4.2
	c0.1,0,0.2,0,0.3,0.1c0.1,0.1,0.1,0.2,0.1,0.3v1c0,0.1,0,0.1,0.1,0.1c0,0,0.1,0,0.2-0.1c0.9-1.2,2.2-1.7,3.8-1.7
	C90.4,7.7,91.8,8.2,92.8,9.4z"/>
<path class="st0" d="M100.1,25.3c-1.3-1.1-2.1-2.5-2.4-4.3c-0.2-1.1-0.3-2.4-0.3-3.7c0-1.4,0.1-2.6,0.3-3.7c0.3-1.8,1.1-3.2,2.4-4.3
	s3.1-1.6,5.2-1.6s3.8,0.5,5.1,1.6c1.3,1.1,2.1,2.5,2.4,4.3c0.2,1.1,0.3,2.3,0.3,3.7s-0.1,2.6-0.3,3.7c-0.3,1.9-1.1,3.3-2.4,4.4
	s-3,1.6-5.1,1.6C103.2,26.9,101.5,26.4,100.1,25.3z M106.9,21.9c0.4-0.4,0.7-1,0.9-1.7c0.1-1,0.2-2,0.2-3s-0.1-2-0.2-2.9
	c-0.1-0.7-0.4-1.3-0.9-1.7c-0.4-0.4-1-0.6-1.7-0.6s-1.2,0.2-1.7,0.6c-0.4,0.4-0.7,0.9-0.9,1.7c-0.1,0.7-0.2,1.7-0.2,2.9
	c0,1.2,0,2.2,0.1,3c0.1,0.7,0.4,1.3,0.9,1.7c0.5,0.4,1,0.6,1.7,0.6C105.9,22.5,106.5,22.3,106.9,21.9z"/>
<path class="st0" d="M125.6,11.7c-0.1,0.1-0.2,0.1-0.3,0.1h-2.8c-0.1,0-0.2,0.1-0.2,0.2v8.2c0,0.8,0.2,1.3,0.5,1.6s0.8,0.5,1.4,0.5
	h0.7c0.1,0,0.2,0,0.3,0.1s0.1,0.2,0.1,0.3v3.5c0,0.3-0.1,0.4-0.4,0.4c-0.4,0-1,0-1.8,0c-1.9,0-3.3-0.3-4.3-0.9
	c-0.9-0.6-1.4-1.8-1.4-3.6V12c0-0.1-0.1-0.2-0.2-0.2h-1.7c-0.1,0-0.2,0-0.3-0.1c-0.1-0.1-0.1-0.2-0.1-0.3v-3c0-0.1,0-0.2,0.1-0.3
	c0.1-0.1,0.2-0.1,0.3-0.1h1.7c0.1,0,0.2-0.1,0.2-0.2V3.6c0-0.1,0-0.2,0.1-0.3s0.2-0.1,0.3-0.1h4c0.1,0,0.2,0,0.3,0.1
	c0.1,0.1,0.1,0.2,0.1,0.3v4.2c0,0.1,0.1,0.2,0.2,0.2h2.8c0.1,0,0.2,0,0.3,0.1c0.1,0.1,0.1,0.2,0.1,0.3v3
	C125.8,11.5,125.7,11.6,125.6,11.7z"/>
<path class="st0" d="M139.7,8.4c1.1,0.5,2,1.2,2.7,2.2c0.6,0.9,1,2,1,3.2v12.4c0,0.1,0,0.2-0.1,0.3c-0.1,0.1-0.2,0.1-0.3,0.1h-4.2
	c-0.1,0-0.2,0-0.3-0.1c-0.1-0.1-0.1-0.2-0.1-0.3v-1c0-0.1,0-0.1-0.1-0.1c0,0-0.1,0-0.1,0.1c-0.9,1.2-2.3,1.8-4.3,1.8
	c-1.6,0-3-0.4-4.1-1.3c-1.1-0.8-1.7-2.3-1.7-4.2c0-3.9,2.5-5.9,7.4-5.9h2.7c0.1,0,0.2-0.1,0.2-0.2v-0.8c0-0.7-0.2-1.3-0.6-1.7
	c-0.4-0.4-1-0.7-1.7-0.7c-0.6,0-1.1,0.1-1.5,0.4c-0.4,0.3-0.6,0.6-0.7,1.1c-0.1,0.2-0.2,0.4-0.5,0.4l-4.4-0.3c-0.1,0-0.2,0-0.3-0.1
	s-0.1-0.2-0.1-0.3c0.1-1.7,0.9-3,2.3-4c1.4-1,3.1-1.5,5.2-1.5C137.2,7.7,138.5,7.9,139.7,8.4z M137.3,22.3c0.6-0.5,0.9-1.1,0.9-1.8
	V19c0-0.1-0.1-0.2-0.2-0.2h-2c-0.9,0-1.6,0.2-2.1,0.6s-0.8,0.9-0.8,1.7c0,0.6,0.2,1.1,0.6,1.5c0.4,0.4,0.9,0.5,1.5,0.5
	C136,23,136.7,22.8,137.3,22.3z"/>
<path class="st0" d="M146.8,26.5c-0.1-0.1-0.1-0.2-0.1-0.3V1.6c0-0.1,0-0.2,0.1-0.3c0.1-0.1,0.2-0.1,0.3-0.1h4.2
	c0.1,0,0.2,0,0.3,0.1c0.1,0.1,0.1,0.2,0.1,0.3v12.1c0,0.1,0,0.1,0.1,0.1s0.1,0,0.1-0.1l4.1-5.6c0.1-0.2,0.3-0.3,0.5-0.3h4.6
	c0.2,0,0.4,0.1,0.4,0.3c0,0.1,0,0.2-0.1,0.3l-4.3,6c0,0.1,0,0.2,0,0.3l4.9,11.4c0,0,0,0.1,0,0.2c0,0.2-0.1,0.3-0.4,0.3h-4.5
	c-0.3,0-0.4-0.1-0.5-0.4l-2.9-7.8c0-0.1-0.1-0.1-0.1-0.1s-0.1,0-0.1,0.1l-1.7,2.4c0,0.1-0.1,0.2-0.1,0.2v5.2c0,0.1,0,0.2-0.1,0.3
	c-0.1,0.1-0.2,0.1-0.3,0.1h-4.2C147,26.6,146.9,26.6,146.8,26.5z"/>
<path class="st0" d="M178.8,17.1v1.4c0,0.3-0.1,0.4-0.4,0.4h-9.7c-0.1,0-0.2,0.1-0.2,0.2c0,0.6,0.1,1,0.1,1.2
	c0.1,0.7,0.4,1.2,0.9,1.6s1.1,0.6,1.8,0.6c1.2,0,2-0.6,2.5-1.6c0.1-0.2,0.3-0.3,0.5-0.3l3.8,0.8c0.3,0.1,0.4,0.3,0.3,0.5
	c-0.5,1.6-1.4,2.8-2.6,3.7c-1.2,0.9-2.7,1.3-4.5,1.3c-2.2,0-3.9-0.5-5.1-1.5c-1.3-1-2.1-2.4-2.5-4.2c-0.2-1-0.3-2.5-0.3-4.5
	c0-1.2,0.1-2.1,0.2-2.9c0.3-1.8,1.1-3.3,2.4-4.4c1.3-1.1,3-1.7,5-1.7c2.2,0,4,0.6,5.4,1.9c1.4,1.2,2.1,2.9,2.3,4.9
	C178.7,15.3,178.8,16.1,178.8,17.1z M169.4,12.6c-0.4,0.4-0.7,0.9-0.8,1.6c-0.1,0.4-0.1,0.9-0.1,1.4c0,0.1,0.1,0.2,0.2,0.2h4.7
	c0.1,0,0.2-0.1,0.2-0.2c0-0.5,0-0.9-0.1-1.4c-0.1-0.7-0.4-1.2-0.8-1.6c-0.4-0.4-1-0.6-1.6-0.6S169.8,12.3,169.4,12.6z"/>
<g>
	<circle class="st1" cx="31" cy="17.3" r="2.7"/>
	<circle class="st2" cx="31" cy="23.9" r="2.7"/>
	<circle class="st3" cx="31" cy="10.6" r="2.7"/>
	<circle class="st1" cx="23.9" cy="17.3" r="2.7"/>
	<circle class="st4" cx="23.9" cy="23.9" r="2.7"/>
	<circle class="st5" cx="23.9" cy="10.6" r="2.7"/>
	<circle class="st2" cx="16.8" cy="17.3" r="2.7"/>
	<circle class="st3" cx="16.8" cy="23.9" r="2.7"/>
	<circle class="st5" cx="16.8" cy="10.6" r="2.7"/>
	<circle class="st1" cx="9.8" cy="17.3" r="2.7"/>
	<circle class="st5" cx="9.8" cy="23.9" r="2.7"/>
	<circle class="st4" cx="9.8" cy="10.6" r="2.7"/>
	<circle class="st2" cx="2.7" cy="17.3" r="2.7"/>
	<circle class="st4" cx="2.7" cy="23.9" r="2.7"/>
	<circle class="st3" cx="2.7" cy="10.6" r="2.7"/>
</g>
</svg>
