<?xml version="1.0" encoding="utf-8"?>
<!-- Generator: Adobe Illustrator 27.0.0, SVG Export Plug-In . SVG Version: 6.00 Build 0)  -->
<svg version="1.1" id="レイヤー_1" xmlns="http://www.w3.org/2000/svg" xmlns:xlink="http://www.w3.org/1999/xlink" x="0px"
	 y="0px" viewBox="0 0 66.5 19" style="enable-background:new 0 0 66.5 19;" xml:space="preserve">
<style type="text/css">
	.st0{fill:#1E293B;}
	.st1{fill:#14B8A6;}
	.st2{fill:#94A3B8;}
	.st3{fill:#2DD4BF;}
	.st4{fill:#475569;}
	.st5{fill:#CBD5E1;}
</style>
<path class="st0" d="M65.1,1.8c0.9,1.1,1.4,2.7,1.4,4.7v12.1c0,0.1,0,0.2-0.1,0.3C66.3,19,66.2,19,66.1,19h-4.2
	c-0.1,0-0.2,0-0.3-0.1s-0.1-0.2-0.1-0.3V7.2c0-0.8-0.2-1.5-0.6-2c-0.4-0.5-0.9-0.7-1.6-0.7c-0.7,0-1.3,0.2-1.7,0.7S57,6.4,57,7.2
	v11.4c0,0.1,0,0.2-0.1,0.3C56.8,19,56.7,19,56.6,19h-4.2c-0.1,0-0.2,0-0.3-0.1S52,18.7,52,18.6V7.2c0-0.8-0.2-1.5-0.6-2
	c-0.4-0.5-1-0.7-1.6-0.7c-0.7,0-1.3,0.2-1.7,0.7s-0.6,1.2-0.6,2v11.4c0,0.1,0,0.2-0.1,0.3C47.3,19,47.2,19,47.1,19h-4.2
	c-0.1,0-0.2,0-0.3-0.1c-0.4-0.1-0.4-0.2-0.4-0.3V0.8c0-0.1,0-0.2,0.1-0.3c0.1-0.1,0.2-0.1,0.3-0.1h4.2c0.1,0,0.2,0,0.3,0.1
	s0.1,0.2,0.1,0.3v0.9c0,0.1,0,0.1,0.1,0.1c0,0,0.1,0,0.1-0.1c0.5-0.6,1.1-1,1.8-1.3S50.6,0,51.4,0c1.1,0,2,0.2,2.8,0.7
	C55,1.1,55.6,1.8,56,2.6l0.1,0.1l0.1-0.1c0.5-0.9,1.2-1.5,2-1.9c1-0.4,1.9-0.6,2.8-0.6C62.8,0.1,64.1,0.6,65.1,1.8z"/>
<circle class="st1" cx="30.5" cy="9.7" r="2.2"/>
<circle class="st2" cx="30.5" cy="16.3" r="2.2"/>
<circle class="st3" cx="30.5" cy="3" r="2.2"/>
<circle class="st1" cx="23.4" cy="9.7" r="2.2"/>
<circle class="st4" cx="23.4" cy="16.3" r="2.2"/>
<circle class="st2" cx="16.3" cy="9.7" r="2.2"/>
<circle class="st3" cx="16.3" cy="16.3" r="2.2"/>
<circle class="st5" cx="16.3" cy="3" r="2.2"/>
<circle class="st1" cx="9.3" cy="9.7" r="2.2"/>
<circle class="st5" cx="9.3" cy="16.3" r="2.2"/>
<circle class="st4" cx="9.3" cy="3" r="2.2"/>
<circle class="st2" cx="2.2" cy="9.7" r="2.2"/>
<circle class="st3" cx="2.2" cy="3" r="2.2"/>
</svg>
