<?xml version="1.0" encoding="utf-8"?>
<!-- Generator: Adobe Illustrator 27.1.1, SVG Export Plug-In . SVG Version: 6.00 Build 0)  -->
<svg version="1.1" id="レイヤー_1" xmlns="http://www.w3.org/2000/svg" xmlns:xlink="http://www.w3.org/1999/xlink" x="0px"
	 y="0px" viewBox="0 0 84.6 28" style="enable-background:new 0 0 84.6 28;" xml:space="preserve">
<style type="text/css">
	.st0{fill:#14B8A6;}
	.st1{fill:#64748B;}
	.st2{fill:#1E293B;}
</style>
<circle class="st0" cx="44" cy="4" r="3.2"/>
<circle class="st1" cx="34" cy="4" r="3.2"/>
<circle class="st1" cx="24" cy="4" r="3.2"/>
<circle class="st0" cx="14" cy="4" r="3.2"/>
<circle class="st1" cx="44" cy="14" r="3.2"/>
<circle class="st1" cx="24" cy="14" r="3.2"/>
<circle class="st1" cx="14" cy="14" r="3.2"/>
<circle class="st1" cx="4" cy="14" r="3.2"/>
<circle class="st0" cx="44" cy="24" r="3.2"/>
<circle class="st0" cx="54" cy="4" r="3.2"/>
<circle class="st1" cx="54" cy="24" r="3.2"/>
<circle class="st0" cx="34" cy="24" r="3.2"/>
<circle class="st0" cx="24" cy="24" r="3.2"/>
<circle class="st0" cx="4" cy="24" r="3.2"/>
<g>
	<path class="st2" d="M79.5,0h4.6c0.1,0,0.2,0,0.3,0.1c0.1,0.1,0.1,0.2,0.1,0.3v27c0,0.1,0,0.2-0.1,0.3C84.4,28,84.3,28,84.2,28
		h-4.7c-0.1,0-0.2,0-0.3-0.1C79,27.8,79,27.7,79,27.5v-18c0-0.1,0-0.2-0.1-0.2c-0.1,0-0.1,0-0.2,0.1L75.6,15
		c-0.1,0.2-0.2,0.3-0.3,0.3c-0.1,0-0.2-0.1-0.3-0.3l-3.1-5.5c-0.1-0.1-0.1-0.1-0.2-0.1c-0.1,0-0.1,0.1-0.1,0.2v18
		c0,0.1,0,0.2-0.1,0.3C71.4,28,71.3,28,71.2,28h-4.7c-0.1,0-0.2,0-0.3-0.1C66,27.8,66,27.7,66,27.5v-27c0-0.1,0-0.2,0.1-0.3
		C66.2,0,66.3,0,66.5,0h4.6c0.3,0,0.5,0.1,0.6,0.3l3.6,6.4c0.1,0.1,0.2,0.1,0.2,0l3.4-6.4C79,0.1,79.2,0,79.5,0z"/>
</g>
</svg>
