<?xml version="1.0" encoding="utf-8"?>
<!-- Generator: Adobe Illustrator 27.1.1, SVG Export Plug-In . SVG Version: 6.00 Build 0)  -->
<svg version="1.1" id="レイヤー_1" xmlns="http://www.w3.org/2000/svg" xmlns:xlink="http://www.w3.org/1999/xlink" x="0px"
	 y="0px" viewBox="0 0 160 42.3" enable-background="new 0 0 160 42.3" xml:space="preserve">
<g>
	<g>
		<path fill="#1C283A" d="M32.3,0.4C32.1,0.1,31.8,0,31.4,0H6.8c-0.6,0-1,0.4-1.1,1L0,41.1c0,0.3,0.1,0.6,0.3,0.9
			c0.2,0.2,0.5,0.4,0.8,0.4h24.7c0.6,0,1-0.4,1.1-1l5.7-40.1C32.6,0.9,32.5,0.6,32.3,0.4z M2.4,40.1L7.8,2.2h22.4l-5.4,37.9H2.4z"/>
		<path fill="#1C283A" d="M26.1,9.7h-9.4c-0.6,0-1.1,0.5-1.1,1.1s0.5,1.1,1.1,1.1h9.4c0.6,0,1.1-0.5,1.1-1.1S26.7,9.7,26.1,9.7z"/>
		<path fill="#1C283A" d="M24.6,20.2h-9.4c-0.6,0-1.1,0.5-1.1,1.1c0,0.6,0.5,1.1,1.1,1.1h9.4c0.6,0,1.1-0.5,1.1-1.1
			C25.7,20.7,25.2,20.2,24.6,20.2z"/>
		<path fill="#1C283A" d="M23.1,30.6h-9.4c-0.6,0-1.1,0.5-1.1,1.1c0,0.6,0.5,1.1,1.1,1.1h9.4c0.6,0,1.1-0.5,1.1-1.1
			C24.2,31.1,23.7,30.6,23.1,30.6z"/>
	</g>
	<g>
		<path fill="#1C283A" d="M59.8,21.6c0.7,0.8,1.1,2,1.1,3.4c0,0.5,0,0.9-0.1,1.2l-1.4,11.3c0,0.1-0.1,0.2-0.2,0.3
			c-0.1,0.1-0.2,0.1-0.3,0.1h-3c-0.1,0-0.2,0-0.3-0.1c-0.1-0.1-0.1-0.2-0.1-0.3L57,26.8c0-0.1,0-0.3,0-0.5c0-0.8-0.2-1.4-0.5-1.8
			c-0.4-0.4-0.9-0.7-1.5-0.7c-0.8,0-1.4,0.3-1.9,0.8c-0.5,0.5-0.8,1.3-0.9,2.2l-1.3,10.7c0,0.1-0.1,0.2-0.2,0.3
			c-0.1,0.1-0.2,0.1-0.3,0.1h-3c-0.1,0-0.2,0-0.3-0.1c-0.1-0.1-0.1-0.2-0.1-0.3l1.3-10.7c0-0.1,0-0.3,0-0.6c0-0.7-0.2-1.3-0.5-1.8
			c-0.4-0.4-0.9-0.6-1.5-0.6c-0.8,0-1.4,0.3-1.9,0.8c-0.5,0.5-0.8,1.3-0.9,2.2l-1.3,10.7c0,0.1-0.1,0.2-0.2,0.3
			c-0.1,0.1-0.2,0.1-0.3,0.1h-3c-0.2,0-0.4-0.1-0.4-0.4l2-16.5c0-0.1,0.1-0.2,0.2-0.3c0.1-0.1,0.2-0.1,0.3-0.1h3
			c0.1,0,0.2,0,0.3,0.1c0.1,0.1,0.1,0.2,0.1,0.3L44,21.9c0,0.1,0,0.1,0,0.1c0,0,0.1,0,0.1-0.1c1-1.1,2.3-1.6,3.9-1.6
			c0.9,0,1.7,0.2,2.4,0.6c0.7,0.4,1.1,1,1.4,1.8c0.1,0.1,0.2,0.1,0.3-0.1c0.6-0.8,1.3-1.4,2.1-1.8c0.8-0.4,1.6-0.6,2.5-0.6
			C58,20.4,59.1,20.8,59.8,21.6z"/>
		<path fill="#1C283A" d="M63.3,37.8c-0.1-0.1-0.1-0.2-0.1-0.3l2-16.5c0-0.1,0.1-0.2,0.2-0.3c0.1-0.1,0.2-0.1,0.3-0.1h3
			c0.1,0,0.2,0,0.3,0.1c0.1,0.1,0.1,0.2,0.1,0.3l-2,16.5c0,0.1-0.1,0.2-0.2,0.3c-0.1,0.1-0.2,0.1-0.3,0.1h-3
			C63.5,37.9,63.4,37.9,63.3,37.8z M66.1,17.7c-0.4-0.4-0.6-0.9-0.6-1.5c0-0.8,0.3-1.4,0.8-2c0.5-0.5,1.1-0.8,1.9-0.8
			c0.6,0,1.1,0.2,1.5,0.6c0.4,0.4,0.6,0.9,0.6,1.5c0,0.8-0.3,1.4-0.8,2c-0.5,0.5-1.1,0.8-1.9,0.8C66.9,18.3,66.4,18.1,66.1,17.7z"/>
		<path fill="#1C283A" d="M84.1,21.7c0.8,0.8,1.1,2,1.1,3.5c0,0.2,0,0.6-0.1,1.1l-1.4,11.3c0,0.1-0.1,0.2-0.2,0.3
			c-0.1,0.1-0.2,0.1-0.3,0.1h-3c-0.1,0-0.2,0-0.3-0.1C80,37.7,80,37.7,80,37.5l1.3-10.7c0-0.1,0-0.3,0-0.6c0-0.7-0.2-1.3-0.6-1.8
			c-0.4-0.4-0.9-0.6-1.6-0.6c-0.8,0-1.5,0.3-2,0.8c-0.5,0.6-0.9,1.3-1,2.2l-1.3,10.7c0,0.1-0.1,0.2-0.2,0.3
			c-0.1,0.1-0.2,0.1-0.3,0.1h-3c-0.2,0-0.4-0.1-0.4-0.4l2-16.5c0-0.1,0.1-0.2,0.2-0.3c0.1-0.1,0.2-0.1,0.3-0.1h3
			c0.1,0,0.2,0,0.3,0.1c0.1,0.1,0.1,0.2,0.1,0.3L76.8,22c0,0.1,0,0.1,0,0.1c0,0,0.1,0,0.1-0.1c1-1.1,2.3-1.6,3.8-1.6
			C82.3,20.4,83.3,20.8,84.1,21.7z"/>
		<path fill="#1C283A" d="M89.5,36.7c-1-1-1.5-2.3-1.6-4c0-1.1,0-2.2,0.2-3.5c0.1-1.2,0.4-2.4,0.7-3.5c0.5-1.6,1.3-2.9,2.6-3.9
			c1.3-1,2.8-1.4,4.5-1.4c1.7,0,3.1,0.5,4.1,1.4c1,1,1.5,2.2,1.6,3.9c0,1.1,0,2.3-0.2,3.5c-0.2,1.3-0.4,2.4-0.7,3.5
			c-0.4,1.7-1.3,3-2.6,4c-1.3,1-2.8,1.5-4.5,1.5S90.5,37.7,89.5,36.7z M96,34.1c0.5-0.5,0.9-1.1,1.1-2c0.2-1.4,0.4-2.3,0.5-2.8
			c0.1-0.5,0.1-1.1,0.2-2.1l0.1-0.8c0-0.8-0.2-1.4-0.7-1.9c-0.4-0.5-1-0.7-1.7-0.7c-0.7,0-1.4,0.2-1.9,0.7c-0.5,0.5-0.9,1.1-1.1,1.9
			c-0.2,0.9-0.4,1.8-0.5,2.9c-0.1,1.3-0.2,2.3-0.2,2.8c0,0.8,0.2,1.5,0.6,2c0.4,0.5,1,0.7,1.8,0.7C94.8,34.8,95.5,34.6,96,34.1z"/>
		<path fill="#1C283A" d="M112.9,23.5c-0.1,0.1-0.2,0.1-0.3,0.1H110c0,0-0.1,0-0.1,0.1c0,0-0.1,0.1-0.1,0.1l-1,8.5
			c0,0.2,0,0.4,0,0.6c0,0.6,0.1,1,0.4,1.3c0.3,0.3,0.7,0.4,1.3,0.4h0.6c0.1,0,0.2,0,0.3,0.1c0.1,0.1,0.1,0.2,0.1,0.3l-0.3,2.6
			c0,0.1,0,0.2-0.1,0.3c-0.1,0.1-0.2,0.1-0.3,0.2h-1.4c-1.5,0-2.6-0.2-3.3-0.7c-0.7-0.5-1.1-1.3-1.1-2.6c0-0.2,0-0.5,0.1-0.9l1.2-10
			c0-0.1,0-0.2-0.1-0.2h-1.5c-0.1,0-0.2,0-0.3-0.1c-0.1-0.1-0.1-0.2-0.1-0.3l0.3-2.2c0-0.1,0.1-0.2,0.2-0.3c0.1-0.1,0.2-0.1,0.3-0.1
			h1.5c0.1,0,0.2-0.1,0.2-0.2l0.5-3.9c0-0.1,0.1-0.2,0.2-0.3c0.1-0.1,0.2-0.1,0.3-0.1h2.9c0.1,0,0.2,0,0.3,0.1
			c0.1,0.1,0.1,0.2,0.1,0.3l-0.5,3.9c0,0.1,0,0.2,0.1,0.2h2.7c0.1,0,0.2,0,0.3,0.1c0.1,0.1,0.1,0.2,0.1,0.3l-0.3,2.2
			C113,23.4,113,23.5,112.9,23.5z"/>
		<path fill="#1C283A" d="M125.1,20.8c0.1-0.1,0.2-0.1,0.3-0.1h3c0.2,0,0.4,0.1,0.4,0.4l-2,16.5c0,0.1-0.1,0.2-0.2,0.3
			c-0.1,0.1-0.2,0.1-0.3,0.1h-3c-0.1,0-0.2,0-0.3-0.1c-0.1-0.1-0.1-0.2-0.1-0.3l0.2-1.3c0-0.1,0-0.1,0-0.2c0,0-0.1,0-0.1,0.1
			c-0.5,0.7-1.1,1.2-1.8,1.5s-1.4,0.5-2.2,0.5c-1.5,0-2.6-0.5-3.4-1.4c-0.8-0.9-1.2-2.2-1.2-3.8c0-0.6,0.1-1.8,0.3-3.7
			c0.2-1.9,0.5-3.2,0.7-3.9c0.4-1.5,1.1-2.8,2.1-3.7c1-0.9,2.3-1.4,3.8-1.4c1.6,0,2.7,0.7,3.4,2c0,0.1,0.1,0.1,0.1,0.1
			c0,0,0.1-0.1,0.1-0.2l0.1-1.2C124.9,21,125,20.9,125.1,20.8z M123.9,29.3c0.2-1.4,0.2-2.4,0.2-3.1c0-0.7-0.2-1.3-0.6-1.7
			c-0.4-0.5-0.9-0.7-1.6-0.7c-0.7,0-1.3,0.2-1.8,0.7s-0.9,1-1.1,1.7c-0.2,0.9-0.4,2-0.5,3.1c-0.1,1.2-0.2,2.2-0.2,3.1
			c0,0.7,0.2,1.3,0.6,1.8c0.4,0.5,1,0.7,1.7,0.7c0.7,0,1.3-0.2,1.8-0.7c0.5-0.5,0.8-1,1-1.8C123.6,31.7,123.7,30.7,123.9,29.3z"/>
		<path fill="#1C283A" d="M130.6,37.5l2.8-22.8c0-0.1,0.1-0.2,0.2-0.3c0.1-0.1,0.2-0.1,0.3-0.1h3c0.1,0,0.2,0,0.3,0.1
			c0.1,0.1,0.1,0.2,0.1,0.3l-1.5,12.1c0,0.1,0.1,0.2,0.2,0.1l5.1-5.9c0.2-0.2,0.3-0.2,0.5-0.2h3.3c0.2,0,0.3,0.1,0.3,0.2
			c0,0.1,0,0.2-0.1,0.3l-4.4,5.2c0,0.1-0.1,0.2,0,0.2l3.1,10.8l0,0.1c0,0.1,0,0.2-0.1,0.2c-0.1,0.1-0.2,0.1-0.3,0.1h-3.1
			c-0.2,0-0.4-0.1-0.4-0.3l-2-8.1c0-0.1-0.1-0.1-0.2,0l-2.4,2.7c0,0.1-0.1,0.2-0.1,0.2l-0.6,5.1c0,0.1-0.1,0.2-0.2,0.3
			s-0.2,0.1-0.3,0.1h-3C130.7,37.9,130.6,37.8,130.6,37.5z"/>
		<path fill="#1C283A" d="M159.6,30.4c0,0.3-0.2,0.4-0.5,0.4h-8.8c0,0-0.1,0-0.1,0.1c0,0-0.1,0.1-0.1,0.1c0,0.3,0,0.8,0,1.4
			c0,0.7,0.3,1.3,0.7,1.8c0.4,0.5,1,0.7,1.8,0.7c0.7,0,1.2-0.2,1.7-0.5c0.5-0.3,0.9-0.8,1.2-1.3c0.2-0.2,0.3-0.3,0.5-0.3l2.6,0.6
			c0.2,0.1,0.3,0.2,0.2,0.5c-0.6,1.4-1.5,2.5-2.7,3.2c-1.1,0.8-2.5,1.1-4,1.1c-2,0-3.4-0.5-4.4-1.6c-1-1-1.5-2.5-1.5-4.4
			c0-0.7,0.1-1.7,0.2-3c0.1-1.3,0.3-2.5,0.6-3.5c0.4-1.6,1.3-3,2.5-3.9c1.3-1,2.8-1.5,4.5-1.5c1.8,0,3.3,0.5,4.3,1.5
			c1,1,1.5,2.4,1.5,4.1C160,27.2,159.9,28.7,159.6,30.4z M151.9,24.4c-0.5,0.4-0.9,1-1.1,1.8l-0.3,1.7c0,0.1,0.1,0.2,0.2,0.2h5.2
			c0.1,0,0.2-0.1,0.2-0.2c0-0.8,0.1-1.4,0.1-1.7c0-0.7-0.2-1.3-0.6-1.7c-0.4-0.4-1-0.7-1.7-0.7C153.1,23.8,152.4,24,151.9,24.4z"/>
	</g>
</g>
</svg>
