<?xml version="1.0" encoding="utf-8"?>
<!-- Generator: Adobe Illustrator 27.0.0, SVG Export Plug-In . SVG Version: 6.00 Build 0)  -->
<svg version="1.1" id="レイヤー_1" xmlns="http://www.w3.org/2000/svg" xmlns:xlink="http://www.w3.org/1999/xlink" x="0px"
	 y="0px" viewBox="0 0 156.1 27" style="enable-background:new 0 0 156.1 27;" xml:space="preserve">
<style type="text/css">
	.st0{fill:#1E293B;}
	.st1{fill:#14B8A6;}
	.st2{fill:#475569;}
</style>
<path class="st0" d="M42.9,9.5c0.9,1.1,1.4,2.7,1.4,4.7v12.1c0,0.1,0,0.2-0.1,0.3c-0.1,0.1-0.2,0.1-0.3,0.1h-4.2
	c-0.1,0-0.2,0-0.3-0.1c-0.1-0.1-0.1-0.2-0.1-0.3V14.9c0-0.8-0.2-1.5-0.6-2c-0.4-0.5-0.9-0.7-1.6-0.7c-0.7,0-1.3,0.2-1.7,0.7
	c-0.4,0.5-0.6,1.2-0.6,2v11.4c0,0.1,0,0.2-0.1,0.3c-0.1,0.1-0.2,0.1-0.3,0.1h-4.2c-0.1,0-0.2,0-0.3-0.1c-0.1-0.1-0.1-0.2-0.1-0.3
	V14.9c0-0.8-0.2-1.5-0.6-2c-0.4-0.5-1-0.7-1.6-0.7c-0.7,0-1.3,0.2-1.7,0.7c-0.4,0.5-0.6,1.2-0.6,2v11.4c0,0.1,0,0.2-0.1,0.3
	c-0.1,0.1-0.2,0.1-0.3,0.1h-4.2c-0.1,0-0.2,0-0.3-0.1C20,26.5,20,26.4,20,26.3V8.5c0-0.1,0-0.2,0.1-0.3c0.1-0.1,0.2-0.1,0.3-0.1h4.2
	c0.1,0,0.2,0,0.3,0.1c0.1,0.1,0.1,0.2,0.1,0.3v0.9c0,0.1,0,0.1,0.1,0.1c0,0,0.1,0,0.1-0.1c0.5-0.6,1.1-1,1.8-1.3
	c0.7-0.3,1.4-0.4,2.2-0.4c1.1,0,2,0.2,2.8,0.7c0.8,0.4,1.4,1.1,1.8,1.9c0,0,0.1,0.1,0.1,0.1c0,0,0.1-0.1,0.1-0.1
	c0.5-0.9,1.2-1.5,2-1.9C37,8,37.9,7.8,38.8,7.8C40.6,7.8,41.9,8.3,42.9,9.5z"/>
<path class="st0" d="M48.4,5.1c-0.5-0.5-0.8-1.2-0.8-2.1c0-0.8,0.3-1.5,0.8-2.1c0.5-0.5,1.2-0.8,2.1-0.8c0.8,0,1.5,0.3,2.1,0.8
	s0.8,1.2,0.8,2.1c0,0.8-0.3,1.5-0.8,2.1C51.9,5.7,51.2,6,50.4,6C49.6,6,48.9,5.7,48.4,5.1z M48,26.6c-0.1-0.1-0.1-0.2-0.1-0.3V8.5
	c0-0.1,0-0.2,0.1-0.3c0.1-0.1,0.2-0.1,0.3-0.1h4.2c0.1,0,0.2,0,0.3,0.1C52.9,8.3,53,8.4,53,8.5v17.8c0,0.1,0,0.2-0.1,0.3
	c-0.1,0.1-0.2,0.1-0.3,0.1h-4.2C48.2,26.7,48.1,26.7,48,26.6z"/>
<path class="st0" d="M70.1,9.5c1,1.1,1.5,2.7,1.5,4.7v12.1c0,0.1,0,0.2-0.1,0.3c-0.1,0.1-0.2,0.1-0.3,0.1h-4.2c-0.1,0-0.2,0-0.3-0.1
	c-0.1-0.1-0.1-0.2-0.1-0.3V14.9c0-0.8-0.2-1.5-0.6-2c-0.4-0.5-1-0.7-1.7-0.7c-0.7,0-1.3,0.2-1.7,0.7c-0.4,0.5-0.6,1.2-0.6,2v11.4
	c0,0.1,0,0.2-0.1,0.3c-0.1,0.1-0.2,0.1-0.3,0.1h-4.2c-0.1,0-0.2,0-0.3-0.1c-0.1-0.1-0.1-0.2-0.1-0.3V8.5c0-0.1,0-0.2,0.1-0.3
	c0.1-0.1,0.2-0.1,0.3-0.1h4.2c0.1,0,0.2,0,0.3,0.1c0.1,0.1,0.1,0.2,0.1,0.3v1c0,0.1,0,0.1,0.1,0.1c0,0,0.1,0,0.2-0.1
	c0.9-1.2,2.2-1.7,3.8-1.7C67.7,7.8,69.1,8.3,70.1,9.5z"/>
<path class="st0" d="M77.4,25.4c-1.3-1.1-2.1-2.5-2.4-4.3c-0.2-1.1-0.3-2.4-0.3-3.7c0-1.4,0.1-2.6,0.3-3.7c0.3-1.8,1.1-3.2,2.4-4.3
	c1.3-1.1,3.1-1.6,5.2-1.6c2.1,0,3.8,0.5,5.1,1.6c1.3,1.1,2.1,2.5,2.4,4.3c0.2,1.1,0.3,2.3,0.3,3.7c0,1.4-0.1,2.6-0.3,3.7
	c-0.3,1.9-1.1,3.3-2.4,4.4c-1.3,1.1-3,1.6-5.1,1.6C80.5,27,78.8,26.5,77.4,25.4z M84.2,22c0.4-0.4,0.7-1,0.9-1.7c0.1-1,0.2-2,0.2-3
	c0-1-0.1-2-0.2-2.9c-0.1-0.7-0.4-1.3-0.9-1.7c-0.4-0.4-1-0.6-1.7-0.6c-0.7,0-1.2,0.2-1.7,0.6c-0.4,0.4-0.7,0.9-0.9,1.7
	c-0.1,0.7-0.2,1.7-0.2,2.9c0,1.2,0,2.2,0.1,3c0.1,0.7,0.4,1.3,0.9,1.7c0.5,0.4,1,0.6,1.7,0.6C83.2,22.6,83.8,22.4,84.2,22z"/>
<path class="st0" d="M102.9,11.8c-0.1,0.1-0.2,0.1-0.3,0.1h-2.8c-0.1,0-0.2,0.1-0.2,0.2v8.2c0,0.8,0.2,1.3,0.5,1.6s0.8,0.5,1.4,0.5
	h0.7c0.1,0,0.2,0,0.3,0.1s0.1,0.2,0.1,0.3v3.5c0,0.3-0.1,0.4-0.4,0.4c-0.4,0-1,0-1.8,0c-1.9,0-3.3-0.3-4.3-0.9
	c-0.9-0.6-1.4-1.8-1.4-3.6V12.1c0-0.1-0.1-0.2-0.2-0.2h-1.7c-0.1,0-0.2,0-0.3-0.1c-0.1-0.1-0.1-0.2-0.1-0.3v-3c0-0.1,0-0.2,0.1-0.3
	c0.1-0.1,0.2-0.1,0.3-0.1h1.7c0.1,0,0.2-0.1,0.2-0.2V3.7c0-0.1,0-0.2,0.1-0.3c0.1-0.1,0.2-0.1,0.3-0.1h4c0.1,0,0.2,0,0.3,0.1
	c0.1,0.1,0.1,0.2,0.1,0.3v4.2c0,0.1,0.1,0.2,0.2,0.2h2.8c0.1,0,0.2,0,0.3,0.1c0.1,0.1,0.1,0.2,0.1,0.3v3
	C103.1,11.6,103,11.7,102.9,11.8z"/>
<path class="st0" d="M117,8.5c1.1,0.5,2,1.2,2.7,2.2c0.6,0.9,1,2,1,3.2v12.4c0,0.1,0,0.2-0.1,0.3s-0.2,0.1-0.3,0.1h-4.2
	c-0.1,0-0.2,0-0.3-0.1c-0.1-0.1-0.1-0.2-0.1-0.3v-1c0-0.1,0-0.1-0.1-0.1c0,0-0.1,0-0.1,0.1c-0.9,1.2-2.3,1.8-4.3,1.8
	c-1.6,0-3-0.4-4.1-1.3c-1.1-0.8-1.7-2.3-1.7-4.2c0-3.9,2.5-5.9,7.4-5.9h2.7c0.1,0,0.2-0.1,0.2-0.2v-0.8c0-0.7-0.2-1.3-0.6-1.7
	c-0.4-0.4-1-0.7-1.7-0.7c-0.6,0-1.1,0.1-1.5,0.4c-0.4,0.3-0.6,0.6-0.7,1.1c-0.1,0.2-0.2,0.4-0.5,0.4l-4.4-0.3c-0.1,0-0.2,0-0.3-0.1
	c-0.1-0.1-0.1-0.2-0.1-0.3c0.1-1.7,0.9-3,2.3-4c1.4-1,3.1-1.5,5.2-1.5C114.5,7.8,115.8,8,117,8.5z M114.6,22.4
	c0.6-0.5,0.9-1.1,0.9-1.8v-1.5c0-0.1-0.1-0.2-0.2-0.2h-2c-0.9,0-1.6,0.2-2.1,0.6c-0.5,0.4-0.8,0.9-0.8,1.7c0,0.6,0.2,1.1,0.6,1.5
	s0.9,0.5,1.5,0.5C113.3,23.1,114,22.9,114.6,22.4z"/>
<path class="st0" d="M124.1,26.6c-0.1-0.1-0.1-0.2-0.1-0.3V1.7c0-0.1,0-0.2,0.1-0.3c0.1-0.1,0.2-0.1,0.3-0.1h4.2
	c0.1,0,0.2,0,0.3,0.1c0.1,0.1,0.1,0.2,0.1,0.3v12.1c0,0.1,0,0.1,0.1,0.1s0.1,0,0.1-0.1l4.1-5.6c0.1-0.2,0.3-0.3,0.5-0.3h4.6
	c0.2,0,0.4,0.1,0.4,0.3c0,0.1,0,0.2-0.1,0.3l-4.3,6c0,0.1,0,0.2,0,0.3l4.9,11.4c0,0,0,0.1,0,0.2c0,0.2-0.1,0.3-0.4,0.3h-4.5
	c-0.3,0-0.4-0.1-0.5-0.4l-2.9-7.8c0-0.1-0.1-0.1-0.1-0.1c0,0-0.1,0-0.1,0.1l-1.7,2.4c0,0.1-0.1,0.2-0.1,0.2v5.2c0,0.1,0,0.2-0.1,0.3
	c-0.1,0.1-0.2,0.1-0.3,0.1h-4.2C124.3,26.7,124.2,26.7,124.1,26.6z"/>
<path class="st0" d="M156.1,17.2l0,1.4c0,0.3-0.1,0.4-0.4,0.4H146c-0.1,0-0.2,0.1-0.2,0.2c0,0.6,0.1,1,0.1,1.2
	c0.1,0.7,0.4,1.2,0.9,1.6c0.5,0.4,1.1,0.6,1.8,0.6c1.2,0,2-0.6,2.5-1.6c0.1-0.2,0.3-0.3,0.5-0.3l3.8,0.8c0.3,0.1,0.4,0.3,0.3,0.5
	c-0.5,1.6-1.4,2.8-2.6,3.7c-1.2,0.9-2.7,1.3-4.5,1.3c-2.2,0-3.9-0.5-5.1-1.5c-1.3-1-2.1-2.4-2.5-4.2c-0.2-1-0.3-2.5-0.3-4.5
	c0-1.2,0.1-2.1,0.2-2.9c0.3-1.8,1.1-3.3,2.4-4.4c1.3-1.1,3-1.7,5-1.7c2.2,0,4,0.6,5.4,1.9c1.4,1.2,2.1,2.9,2.3,4.9
	C156,15.4,156.1,16.2,156.1,17.2z M146.7,12.7c-0.4,0.4-0.7,0.9-0.8,1.6c-0.1,0.4-0.1,0.9-0.1,1.4c0,0.1,0.1,0.2,0.2,0.2h4.7
	c0.1,0,0.2-0.1,0.2-0.2c0-0.5,0-0.9-0.1-1.4c-0.1-0.7-0.4-1.2-0.8-1.6c-0.4-0.4-1-0.6-1.6-0.6S147.1,12.4,146.7,12.7z"/>
<circle class="st1" cx="6" cy="6" r="6"/>
<circle class="st2" cx="6" cy="21" r="6"/>
</svg>
