<?xml version="1.0" encoding="utf-8"?>
<!-- Generator: Adobe Illustrator 27.0.0, SVG Export Plug-In . SVG Version: 6.00 Build 0)  -->
<svg version="1.1" id="レイヤー_1" xmlns="http://www.w3.org/2000/svg" xmlns:xlink="http://www.w3.org/1999/xlink" x="0px"
	 y="0px" viewBox="0 0 600 338" style="enable-background:new 0 0 600 338;" xml:space="preserve">
<style type="text/css">
	.st0{fill:#E2E8F0;}
	.st1{fill:#64748B;}
</style>
<rect class="st0" width="600" height="338"/>
<g>
	<path class="st1" d="M231.2,151.7c0.1-0.1,0.3-0.2,0.4-0.2h5.8c0.2,0,0.3,0.1,0.4,0.2c0.1,0.1,0.2,0.3,0.2,0.4v33.8
		c0,0.2-0.1,0.3-0.2,0.4c-0.1,0.1-0.3,0.2-0.4,0.2h-6.6c-0.3,0-0.5-0.2-0.6-0.5l-6.2-19.3c0-0.1-0.1-0.1-0.2-0.1
		c-0.1,0-0.1,0.1-0.1,0.2l0.1,19.2c0,0.2-0.1,0.3-0.2,0.4c-0.1,0.1-0.3,0.2-0.4,0.2h-5.8c-0.2,0-0.3-0.1-0.4-0.2
		c-0.1-0.1-0.2-0.3-0.2-0.4v-33.8c0-0.2,0.1-0.3,0.2-0.4c0.1-0.1,0.3-0.2,0.4-0.2h6.6c0.3,0,0.5,0.2,0.6,0.5l6.2,19.3
		c0,0.1,0.1,0.1,0.2,0.1c0.1,0,0.1-0.1,0.1-0.2v-19.2C231,151.9,231.1,151.8,231.2,151.7z"/>
	<path class="st1" d="M245.2,184.2c-1.8-1.8-2.8-4.2-2.8-7.2v-16c0-3,0.9-5.4,2.8-7.2c1.8-1.8,4.3-2.7,7.3-2.7
		c3.1,0,5.5,0.9,7.4,2.7s2.8,4.2,2.8,7.2v16c0,3-0.9,5.4-2.8,7.2c-1.8,1.8-4.3,2.7-7.4,2.7C249.4,186.9,247,186,245.2,184.2z
		 M254.8,179.9c0.6-0.7,0.9-1.5,0.9-2.6v-16.6c0-1.1-0.3-1.9-0.9-2.6c-0.6-0.7-1.3-1-2.2-1s-1.7,0.3-2.2,1c-0.6,0.7-0.8,1.5-0.8,2.6
		v16.6c0,1.1,0.3,1.9,0.8,2.6c0.5,0.7,1.3,1,2.2,1C253.4,180.8,254.2,180.5,254.8,179.9z"/>
	<path class="st1" d="M277.7,186.3c-0.1-0.1-0.2-0.3-0.2-0.4v-33.8c0-0.2,0.1-0.3,0.2-0.4c0.1-0.1,0.3-0.2,0.4-0.2h5.9
		c0.2,0,0.3,0.1,0.4,0.2c0.1,0.1,0.2,0.3,0.2,0.4v33.8c0,0.2-0.1,0.3-0.2,0.4c-0.1,0.1-0.3,0.2-0.4,0.2h-5.9
		C278,186.5,277.8,186.4,277.7,186.3z"/>
	<path class="st1" d="M306.3,151.5h5.8c0.2,0,0.3,0.1,0.4,0.2c0.1,0.1,0.2,0.3,0.2,0.4v33.8c0,0.2-0.1,0.3-0.2,0.4
		c-0.1,0.1-0.3,0.2-0.4,0.2h-5.8c-0.2,0-0.3-0.1-0.4-0.2c-0.1-0.1-0.2-0.3-0.2-0.4v-22.5c0-0.1,0-0.2-0.1-0.2s-0.1,0-0.2,0.2
		l-3.9,6.9c-0.2,0.3-0.3,0.4-0.4,0.4s-0.2-0.1-0.4-0.4l-3.9-6.9c-0.1-0.1-0.1-0.2-0.2-0.2s-0.1,0.1-0.1,0.2v22.5
		c0,0.2-0.1,0.3-0.2,0.4c-0.1,0.1-0.3,0.2-0.4,0.2H290c-0.2,0-0.3-0.1-0.4-0.2c-0.1-0.1-0.2-0.3-0.2-0.4v-33.8
		c0-0.2,0.1-0.3,0.2-0.4c0.1-0.1,0.3-0.2,0.4-0.2h5.8c0.3,0,0.6,0.1,0.8,0.4l4.4,7.9c0.1,0.1,0.2,0.1,0.3,0l4.3-7.9
		C305.7,151.6,305.9,151.5,306.3,151.5z"/>
	<path class="st1" d="M331.5,186l-0.8-4.8c0-0.2-0.1-0.2-0.3-0.2H324c-0.2,0-0.3,0.1-0.3,0.2l-0.8,4.8c0,0.4-0.2,0.5-0.7,0.5h-5.8
		c-0.4,0-0.6-0.2-0.5-0.7l7.3-33.8c0.1-0.4,0.3-0.5,0.7-0.5h6.8c0.4,0,0.6,0.2,0.7,0.5l7.3,33.8l0.1,0.2c0,0.3-0.2,0.5-0.6,0.5h-6
		C331.7,186.5,331.5,186.3,331.5,186z M324.9,175.5h4.5c0.2,0,0.2-0.1,0.2-0.2l-2.3-13.7c0-0.1-0.1-0.1-0.2-0.1s-0.1,0-0.1,0.1
		l-2.2,13.7C324.7,175.4,324.8,175.5,324.9,175.5z"/>
	<path class="st1" d="M343.3,184.3c-1.8-1.7-2.7-4-2.7-6.9v-16.9c0-2.9,0.9-5.2,2.7-6.9c1.8-1.7,4.2-2.6,7.2-2.6s5.4,0.9,7.2,2.6
		c1.8,1.7,2.8,4,2.8,6.9v1.9c0,0.2-0.1,0.3-0.2,0.4c-0.1,0.1-0.3,0.2-0.4,0.2h-5.8c-0.2,0-0.3-0.1-0.4-0.2c-0.1-0.1-0.2-0.3-0.2-0.4
		v-2c0-1-0.3-1.8-0.8-2.4c-0.5-0.6-1.2-0.9-2.2-0.9c-0.9,0-1.6,0.3-2.1,0.9c-0.5,0.6-0.8,1.4-0.8,2.4v17c0,1,0.3,1.8,0.8,2.4
		c0.5,0.6,1.2,0.9,2.1,0.9s1.6-0.3,2.2-0.9c0.5-0.6,0.8-1.4,0.8-2.4v-4c0-0.2-0.1-0.2-0.2-0.2H351c-0.2,0-0.3-0.1-0.4-0.2
		c-0.1-0.1-0.2-0.3-0.2-0.4v-4.5c0-0.2,0.1-0.3,0.2-0.4c0.1-0.1,0.3-0.2,0.4-0.2h8.9c0.2,0,0.3,0.1,0.4,0.2c0.1,0.1,0.2,0.3,0.2,0.4
		v9.2c0,2.9-0.9,5.2-2.8,6.9c-1.8,1.7-4.2,2.6-7.2,2.6S345.1,186,343.3,184.3z"/>
	<path class="st1" d="M383.1,157.4c-0.1,0.1-0.3,0.2-0.4,0.2h-10.5c-0.2,0-0.2,0.1-0.2,0.2v7.9c0,0.2,0.1,0.2,0.2,0.2h6
		c0.2,0,0.3,0.1,0.4,0.2c0.1,0.1,0.2,0.3,0.2,0.4v4.9c0,0.2-0.1,0.3-0.2,0.4c-0.1,0.1-0.3,0.2-0.4,0.2h-6c-0.2,0-0.2,0.1-0.2,0.2v8
		c0,0.2,0.1,0.2,0.2,0.2h10.5c0.2,0,0.3,0.1,0.4,0.2c0.1,0.1,0.2,0.3,0.2,0.4v4.9c0,0.2-0.1,0.3-0.2,0.4c-0.1,0.1-0.3,0.2-0.4,0.2
		h-17.2c-0.2,0-0.3-0.1-0.4-0.2c-0.1-0.1-0.2-0.3-0.2-0.4v-33.8c0-0.2,0.1-0.3,0.2-0.4c0.1-0.1,0.3-0.2,0.4-0.2h17.2
		c0.2,0,0.3,0.1,0.4,0.2c0.1,0.1,0.2,0.3,0.2,0.4v4.9C383.3,157.1,383.2,157.3,383.1,157.4z"/>
</g>
</svg>
